<svg version="1.1" id="Layer_1" xmlns="http://www.w3.org/2000/svg" xmlns:xlink="http://www.w3.org/1999/xlink" x="0px" y="0px"
	 width="100%" viewBox="0 0 200 200" enable-background="new 0 0 200 200" xml:space="preserve">
<path fill="#FCFAF1" opacity="1.000000" stroke="none" 
	d="
M86.000000,201.000000 
	C57.333336,201.000000 29.166670,201.000000 1.000004,201.000000 
	C1.000003,134.333344 1.000003,67.666679 1.000001,1.000013 
	C67.666656,1.000008 134.333313,1.000008 200.999969,1.000004 
	C200.999985,67.666649 200.999985,134.333298 201.000000,200.999969 
	C162.833328,201.000000 124.666664,201.000000 86.000000,201.000000 
M144.846024,127.877251 
	C144.953461,128.915787 145.060898,129.954315 145.236115,131.688507 
	C148.530045,132.147369 151.823975,132.606247 155.117905,133.065109 
	C155.164322,132.529144 155.210739,131.993195 155.257156,131.457230 
	C154.393982,131.178650 153.530807,130.900055 152.581146,130.593567 
	C153.847382,130.043823 155.000031,129.543396 156.152679,129.042984 
	C156.095856,128.369080 156.039047,127.695168 155.982224,127.021263 
	C153.478943,126.880318 150.975662,126.739372 148.116043,126.052338 
	C147.417969,125.103714 146.719894,124.155090 145.345825,122.287827 
	C145.020203,124.594315 144.842300,125.854378 144.846024,127.877251 
M141.849457,126.254707 
	C140.902039,126.171700 139.954636,126.088684 138.336197,125.951347 
	C137.020950,126.389732 135.705704,126.828117 134.390457,127.266502 
	C134.582932,127.536652 134.775406,127.806801 134.967880,128.076950 
	C136.296356,128.368454 137.624832,128.659973 138.382538,129.309692 
	C138.290207,130.181076 138.197861,131.052475 138.399826,132.614044 
	C139.619751,132.687302 140.839661,132.760559 142.658127,132.816620 
	C142.455170,130.862564 142.252213,128.908508 141.999390,126.995277 
	C141.999390,126.995277 142.050339,126.960571 141.849457,126.254707 
M56.508453,130.914429 
	C56.676197,130.882111 56.843945,130.849792 57.411095,131.009186 
	C57.411095,131.009186 57.845200,131.097687 58.214630,131.739288 
	C59.662937,132.177856 61.111248,132.616409 62.559555,133.054962 
	C62.703270,132.638962 62.846981,132.222946 62.990696,131.806946 
	C62.170147,131.397430 61.349598,130.987915 60.370277,130.499161 
	C61.774754,130.026535 62.906116,129.645813 64.077286,129.251678 
	C62.323299,125.470688 62.323299,125.470688 58.163361,126.715691 
	C56.037876,123.641914 53.488628,121.647163 49.410851,123.378418 
	C49.410851,126.438759 49.410851,129.553848 49.410851,132.668945 
	C49.684685,132.723099 49.958519,132.777252 50.232353,132.831406 
	C50.833195,131.588318 51.434036,130.345230 52.256943,128.642715 
	C53.406212,130.317627 54.220692,131.504608 55.035172,132.691605 
	C55.357929,132.128296 55.680691,131.564987 56.508453,130.914429 
M124.617500,132.418152 
	C126.018440,132.520157 127.419380,132.622162 128.820328,132.724167 
	C128.860962,132.375229 128.901596,132.026276 128.942245,131.677338 
	C128.173706,131.276184 127.405182,130.875046 127.074257,130.702316 
	C128.699463,129.573837 130.471573,128.343353 133.183304,126.460434 
	C129.009735,126.673332 125.991982,126.827271 122.471840,126.546089 
	C122.471840,125.142670 122.471840,123.739243 122.471840,121.725677 
	C120.999825,122.239807 120.008247,122.586136 118.126328,122.699188 
	C116.540047,122.699188 114.953773,122.699188 113.148132,122.699188 
	C113.148132,126.349442 113.148132,129.501709 113.148132,132.877121 
	C115.287163,132.877121 117.061638,132.877121 119.608788,132.944580 
	C121.089523,132.614792 122.570267,132.284988 124.617500,132.418152 
M152.416290,106.638336 
	C152.568176,107.446770 152.436371,108.582558 152.923218,109.004456 
	C154.629684,110.483238 156.612625,112.827751 158.370010,112.727585 
	C160.104889,112.628700 162.767838,110.134743 163.049118,108.375771 
	C163.339996,106.556694 161.714783,103.357048 160.081146,102.608177 
	C158.465179,101.867409 155.743500,103.297836 153.608826,104.061134 
	C152.869095,104.325645 152.435104,105.445236 151.359818,105.337456 
	C153.147186,94.279762 151.966278,91.719604 142.636139,86.078506 
	C140.650482,84.877953 138.325119,83.833649 136.999771,82.079903 
	C136.008163,80.767761 136.243286,78.430336 136.255844,76.551605 
	C136.257996,76.228142 138.530411,75.486481 138.649414,75.666847 
	C139.478271,76.923141 140.051926,78.356819 140.629578,79.765549 
	C140.870941,80.354111 140.922440,81.020523 141.041107,81.563873 
	C144.619156,81.563873 148.024109,81.563873 153.111267,81.563873 
	C151.112289,77.022453 150.276489,72.735779 147.761093,69.984947 
	C144.244186,66.138863 134.308975,65.975021 129.797913,68.839104 
	C124.663208,72.099136 124.207840,77.405922 125.132263,82.596199 
	C125.611954,85.289459 127.336555,88.141014 129.315750,90.092438 
	C131.876022,92.616776 135.461044,94.075089 138.190994,96.465103 
	C139.598923,97.697723 140.453705,99.881958 140.850677,101.783928 
	C140.998657,102.493004 139.131393,103.622688 138.183044,104.560577 
	C137.396439,103.672623 136.288025,102.903732 135.904343,101.866692 
	C135.420059,100.557755 135.526794,99.030151 135.369171,97.505844 
	C131.725891,97.505844 128.468658,97.505844 125.242691,97.505844 
	C123.979904,108.200729 128.864594,113.427849 139.108612,113.510895 
	C145.142441,113.559807 148.681641,110.307388 152.416290,106.638336 
M48.783344,102.296333 
	C48.644867,106.454277 49.095409,110.545776 53.318878,112.558907 
	C57.774014,114.682465 62.047012,113.800217 65.215652,110.724228 
	C69.151855,114.583725 73.540489,112.399895 77.498650,112.863029 
	C77.498650,93.963554 77.498650,75.616844 77.498650,57.267952 
	C73.491058,57.267952 69.895279,57.267952 65.882515,57.267952 
	C65.882515,59.511078 65.882515,61.469620 65.882515,63.428162 
	C65.882515,65.377136 65.882515,67.326111 65.882515,69.462593 
	C65.050682,69.277489 64.500137,69.304001 64.144051,69.053764 
	C56.855125,63.931660 48.472198,68.653374 48.863426,78.908058 
	C49.148319,86.375496 48.831863,93.865875 48.783344,102.296333 
M100.370781,113.216682 
	C103.907288,112.713600 107.443794,112.210526 111.301018,111.661819 
	C114.312042,114.723763 118.654594,112.303688 122.556900,112.833031 
	C122.556900,97.520462 122.556900,82.940506 122.556900,68.294678 
	C118.664307,68.294678 115.135201,68.294678 111.284630,68.294678 
	C111.284630,70.506714 111.285423,72.316254 111.284477,74.125801 
	C111.280136,82.444839 111.390602,90.766891 111.173050,99.080360 
	C111.129730,100.735611 109.830856,102.358009 109.110954,103.995552 
	C108.345535,102.308052 107.019325,100.652245 106.921844,98.927002 
	C106.650215,94.119537 106.904266,89.283340 106.920769,84.458382 
	C106.939293,79.040314 106.925026,73.622131 106.925026,68.189392 
	C102.616119,68.189392 99.038696,68.189392 95.052124,68.189392 
	C95.052124,80.966057 94.811073,93.422684 95.259407,105.854462 
	C95.347061,108.285057 98.107849,110.619247 100.370781,113.216682 
M92.561638,80.500374 
	C92.561638,72.775627 92.561638,65.050880 92.561638,57.269882 
	C88.172729,57.269882 84.588150,57.269882 80.653198,57.269882 
	C80.653198,75.885025 80.653198,94.234421 80.653198,112.611938 
	C84.696259,112.611938 88.424545,112.611938 92.562424,112.611938 
	C92.562424,102.027000 92.562424,91.763695 92.561638,80.500374 
M118.983322,55.880531 
	C118.945335,55.055939 118.907349,54.231350 118.868401,53.385941 
	C107.530731,56.240158 102.575455,60.264431 103.838089,65.920265 
	C108.785294,64.842285 113.729507,63.764957 118.967049,62.623714 
	C118.967049,60.366058 118.967049,58.551498 118.983322,55.880531 
M92.574471,130.277008 
	C94.815224,128.859024 97.055977,127.441032 99.656868,125.795143 
	C98.665253,125.559410 98.109367,125.226959 97.747910,125.373634 
	C95.294952,126.369064 93.035637,128.257248 90.221207,125.755104 
	C89.803680,125.383904 86.794525,126.711220 86.519463,127.685921 
	C86.122360,129.093094 87.128922,130.896362 87.536560,132.530624 
	C89.083565,132.001175 90.630577,131.471725 92.574471,130.277008 
M163.076569,123.503914 
	C161.910233,124.155075 160.804184,124.970314 159.565796,125.425423 
	C156.353516,126.605927 156.162338,129.224991 157.520996,131.380524 
	C158.277161,132.580185 160.851578,132.633774 163.162811,133.384552 
	C163.162811,129.544205 163.162811,126.919090 163.076569,123.503914 
M72.486847,131.847427 
	C74.772285,133.760086 76.874893,133.680573 77.911324,130.734253 
	C78.330887,129.541565 77.951500,127.642685 77.194473,126.606842 
	C76.667328,125.885536 74.006416,125.598335 73.803314,125.960640 
	C72.931679,127.515564 72.617226,129.382828 72.486847,131.847427 
z"/>
<path fill="#4F4F4F" opacity="1.000000" stroke="none" 
	d="
M48.783424,101.821182 
	C48.831863,93.865875 49.148319,86.375496 48.863426,78.908058 
	C48.472198,68.653374 56.855125,63.931660 64.144051,69.053764 
	C64.500137,69.304001 65.050682,69.277489 65.882515,69.462593 
	C65.882515,67.326111 65.882515,65.377136 65.882515,63.428162 
	C65.882515,61.469620 65.882515,59.511078 65.882515,57.267952 
	C69.895279,57.267952 73.491058,57.267952 77.498650,57.267952 
	C77.498650,75.616844 77.498650,93.963554 77.498650,112.863029 
	C73.540489,112.399895 69.151855,114.583725 65.215652,110.724228 
	C62.047012,113.800217 57.774014,114.682465 53.318878,112.558907 
	C49.095409,110.545776 48.644867,106.454277 48.783424,101.821182 
M66.074821,90.494949 
	C66.064529,86.846870 66.275352,83.177299 65.924088,79.562355 
	C65.801041,78.296089 64.295677,77.164146 63.421547,75.970863 
	C62.356880,77.032776 60.401649,78.070099 60.371532,79.160576 
	C60.170387,86.444740 60.252930,93.746223 60.594952,101.025551 
	C60.645382,102.098877 62.556591,103.084770 63.606869,104.111115 
	C64.427460,102.885460 65.798111,101.726707 65.956940,100.420578 
	C66.314667,97.479050 66.072205,94.464539 66.074821,90.494949 
z"/>
<path fill="#525251" opacity="1.000000" stroke="none" 
	d="
M100.003242,113.107300 
	C98.107849,110.619247 95.347061,108.285057 95.259407,105.854462 
	C94.811073,93.422684 95.052124,80.966057 95.052124,68.189392 
	C99.038696,68.189392 102.616119,68.189392 106.925026,68.189392 
	C106.925026,73.622131 106.939293,79.040314 106.920769,84.458382 
	C106.904266,89.283340 106.650215,94.119537 106.921844,98.927002 
	C107.019325,100.652245 108.345535,102.308052 109.110954,103.995552 
	C109.830856,102.358009 111.129730,100.735611 111.173050,99.080360 
	C111.390602,90.766891 111.280136,82.444839 111.284477,74.125801 
	C111.285423,72.316254 111.284630,70.506714 111.284630,68.294678 
	C115.135201,68.294678 118.664307,68.294678 122.556900,68.294678 
	C122.556900,82.940506 122.556900,97.520462 122.556900,112.833031 
	C118.654594,112.303688 114.312042,114.723763 111.301018,111.661819 
	C107.443794,112.210526 103.907288,112.713600 100.003242,113.107300 
z"/>
<path fill="#50504F" opacity="1.000000" stroke="none" 
	d="
M151.935379,106.076660 
	C148.681641,110.307388 145.142441,113.559807 139.108612,113.510895 
	C128.864594,113.427849 123.979904,108.200729 125.242691,97.505844 
	C128.468658,97.505844 131.725891,97.505844 135.369171,97.505844 
	C135.526794,99.030151 135.420059,100.557755 135.904343,101.866692 
	C136.288025,102.903732 137.396439,103.672623 138.183044,104.560577 
	C139.131393,103.622688 140.998657,102.493004 140.850677,101.783928 
	C140.453705,99.881958 139.598923,97.697723 138.190994,96.465103 
	C135.461044,94.075089 131.876022,92.616776 129.315750,90.092438 
	C127.336555,88.141014 125.611954,85.289459 125.132263,82.596199 
	C124.207840,77.405922 124.663208,72.099136 129.797913,68.839104 
	C134.308975,65.975021 144.244186,66.138863 147.761093,69.984947 
	C150.276489,72.735779 151.112289,77.022453 153.111267,81.563873 
	C148.024109,81.563873 144.619156,81.563873 141.041107,81.563873 
	C140.922440,81.020523 140.870941,80.354111 140.629578,79.765549 
	C140.051926,78.356819 139.478271,76.923141 138.649414,75.666847 
	C138.530411,75.486481 136.257996,76.228142 136.255844,76.551605 
	C136.243286,78.430336 136.008163,80.767761 136.999771,82.079903 
	C138.325119,83.833649 140.650482,84.877953 142.636139,86.078506 
	C151.966278,91.719604 153.147186,94.279762 151.631836,105.733521 
	C151.903870,106.129578 151.935379,106.076660 151.935379,106.076660 
z"/>
<path fill="#525251" opacity="1.000000" stroke="none" 
	d="
M92.562027,81.000381 
	C92.562424,91.763695 92.562424,102.027000 92.562424,112.611938 
	C88.424545,112.611938 84.696259,112.611938 80.653198,112.611938 
	C80.653198,94.234421 80.653198,75.885025 80.653198,57.269882 
	C84.588150,57.269882 88.172729,57.269882 92.561638,57.269882 
	C92.561638,65.050880 92.561638,72.775627 92.562027,81.000381 
z"/>
<path fill="#575755" opacity="1.000000" stroke="none" 
	d="
M118.975189,56.308735 
	C118.967049,58.551498 118.967049,60.366058 118.967049,62.623714 
	C113.729507,63.764957 108.785294,64.842285 103.838089,65.920265 
	C102.575455,60.264431 107.530731,56.240158 118.868401,53.385941 
	C118.907349,54.231350 118.945335,55.055939 118.975189,56.308735 
z"/>
<path fill="#515050" opacity="1.000000" stroke="none" 
	d="
M151.882660,106.151917 
	C152.435104,105.445236 152.869095,104.325645 153.608826,104.061134 
	C155.743500,103.297836 158.465179,101.867409 160.081146,102.608177 
	C161.714783,103.357048 163.339996,106.556694 163.049118,108.375771 
	C162.767838,110.134743 160.104889,112.628700 158.370010,112.727585 
	C156.612625,112.827751 154.629684,110.483238 152.923218,109.004456 
	C152.436371,108.582558 152.568176,107.446770 152.175842,106.357498 
	C151.935379,106.076660 151.903870,106.129578 151.882660,106.151917 
z"/>
<path fill="#C9E1DC" opacity="1.000000" stroke="none" 
	d="
M119.016670,122.932465 
	C120.008247,122.586136 120.999825,122.239807 122.471840,121.725677 
	C122.471840,123.739243 122.471840,125.142670 122.655022,127.139648 
	C123.242470,129.140533 123.646736,130.547867 124.051003,131.955185 
	C122.570267,132.284988 121.089523,132.614792 119.188042,132.545944 
	C117.144043,131.506866 115.520798,130.866425 112.915474,129.838516 
	C114.939957,128.699875 116.081017,128.058105 116.918053,127.587326 
	C115.866760,126.850967 114.805618,126.107719 113.231102,125.004883 
	C115.840919,124.070030 117.428795,123.501244 119.016670,122.932465 
z"/>
<path fill="#59A3A9" opacity="1.000000" stroke="none" 
	d="
M57.845200,131.097687 
	C57.845200,131.097687 57.411095,131.009186 57.188461,130.677582 
	C56.671272,130.105377 56.376717,129.864746 56.082161,129.624130 
	C56.055923,130.083313 56.029682,130.542480 56.003448,131.001663 
	C55.680691,131.564987 55.357929,132.128296 55.035172,132.691605 
	C54.220692,131.504608 53.406212,130.317627 52.256943,128.642715 
	C51.434036,130.345230 50.833195,131.588318 50.232353,132.831406 
	C49.958519,132.777252 49.684685,132.723099 49.410851,132.668945 
	C49.410851,129.553848 49.410851,126.438759 49.410851,123.378418 
	C53.488628,121.647163 56.037876,123.641914 58.554928,127.046661 
	C58.579399,128.617645 58.212299,129.857666 57.845200,131.097687 
z"/>
<path fill="#77B1B5" opacity="1.000000" stroke="none" 
	d="
M92.376022,130.609634 
	C90.630577,131.471725 89.083565,132.001175 87.536560,132.530624 
	C87.128922,130.896362 86.122360,129.093094 86.519463,127.685921 
	C86.794525,126.711220 89.803680,125.383904 90.221207,125.755104 
	C93.035637,128.257248 95.294952,126.369064 97.747910,125.373634 
	C98.109367,125.226959 98.665253,125.559410 99.656868,125.795143 
	C97.055977,127.441032 94.815224,128.859024 92.376022,130.609634 
z"/>
<path fill="#71AFB3" opacity="1.000000" stroke="none" 
	d="
M148.472382,126.598427 
	C150.975662,126.739372 153.478943,126.880318 155.982224,127.021263 
	C156.039047,127.695168 156.095856,128.369080 156.152679,129.042984 
	C155.000031,129.543396 153.847382,130.043823 152.581146,130.593567 
	C153.530807,130.900055 154.393982,131.178650 155.257156,131.457230 
	C155.210739,131.993195 155.164322,132.529144 155.117905,133.065109 
	C151.823975,132.606247 148.530045,132.147369 145.571564,131.330383 
	C146.602478,129.650360 147.297958,128.328445 148.113388,126.904770 
	C148.233337,126.802994 148.472382,126.598427 148.472382,126.598427 
z"/>
<path fill="#6DAEB2" opacity="1.000000" stroke="none" 
	d="
M163.119690,123.898941 
	C163.162811,126.919090 163.162811,129.544205 163.162811,133.384552 
	C160.851578,132.633774 158.277161,132.580185 157.520996,131.380524 
	C156.162338,129.224991 156.353516,126.605927 159.565796,125.425423 
	C160.804184,124.970314 161.910233,124.155075 163.119690,123.898941 
z"/>
<path fill="#76B1B5" opacity="1.000000" stroke="none" 
	d="
M124.334251,132.186676 
	C123.646736,130.547867 123.242470,129.140533 122.906219,127.357208 
	C125.991982,126.827271 129.009735,126.673332 133.183304,126.460434 
	C130.471573,128.343353 128.699463,129.573837 127.074257,130.702316 
	C127.405182,130.875046 128.173706,131.276184 128.942245,131.677338 
	C128.901596,132.026276 128.860962,132.375229 128.820328,132.724167 
	C127.419380,132.622162 126.018440,132.520157 124.334251,132.186676 
z"/>
<path fill="#70AEB3" opacity="1.000000" stroke="none" 
	d="
M72.293289,131.491852 
	C72.617226,129.382828 72.931679,127.515564 73.803314,125.960640 
	C74.006416,125.598335 76.667328,125.885536 77.194473,126.606842 
	C77.951500,127.642685 78.330887,129.541565 77.911324,130.734253 
	C76.874893,133.680573 74.772285,133.760086 72.293289,131.491852 
z"/>
<path fill="#65A7AC" opacity="1.000000" stroke="none" 
	d="
M58.029915,131.418488 
	C58.212299,129.857666 58.579399,128.617645 58.919228,126.953430 
	C62.323299,125.470688 62.323299,125.470688 64.077286,129.251678 
	C62.906116,129.645813 61.774754,130.026535 60.370277,130.499161 
	C61.349598,130.987915 62.170147,131.397430 62.990696,131.806946 
	C62.846981,132.222946 62.703270,132.638962 62.559555,133.054962 
	C61.111248,132.616409 59.662937,132.177856 58.029915,131.418488 
z"/>
<path fill="#55A0A7" opacity="1.000000" stroke="none" 
	d="
M118.571503,122.815826 
	C117.428795,123.501244 115.840919,124.070030 113.231102,125.004883 
	C114.805618,126.107719 115.866760,126.850967 116.918053,127.587326 
	C116.081017,128.058105 114.939957,128.699875 112.915474,129.838516 
	C115.520798,130.866425 117.144043,131.506866 118.801704,132.512207 
	C117.061638,132.877121 115.287163,132.877121 113.148132,132.877121 
	C113.148132,129.501709 113.148132,126.349442 113.148132,122.699188 
	C114.953773,122.699188 116.540047,122.699188 118.571503,122.815826 
z"/>
<path fill="#A5CCCC" opacity="1.000000" stroke="none" 
	d="
M138.953308,128.951477 
	C137.624832,128.659973 136.296356,128.368454 134.967880,128.076950 
	C134.775406,127.806801 134.582932,127.536652 134.390457,127.266502 
	C135.705704,126.828117 137.020950,126.389732 138.857361,126.262619 
	C140.269135,126.702782 141.159744,126.831680 142.050339,126.960571 
	C142.050339,126.960571 141.999390,126.995277 141.929199,127.318062 
	C140.890442,128.077728 139.921875,128.514603 138.953308,128.951477 
z"/>
<path fill="#59A2A8" opacity="1.000000" stroke="none" 
	d="
M138.667923,129.130585 
	C139.921875,128.514603 140.890442,128.077728 141.954132,127.297646 
	C142.252213,128.908508 142.455170,130.862564 142.322174,132.490845 
	C140.974045,127.557426 139.415192,131.745255 138.105530,131.923859 
	C138.197861,131.052475 138.290207,130.181076 138.667923,129.130585 
z"/>
<path fill="#71AFB3" opacity="1.000000" stroke="none" 
	d="
M144.664413,127.114449 
	C144.842300,125.854378 145.020203,124.594315 145.345825,122.287827 
	C146.719894,124.155090 147.417969,125.103714 148.294220,126.325378 
	C148.472382,126.598427 148.233337,126.802994 147.697601,126.900330 
	C146.329376,127.036591 145.496902,127.075523 144.664413,127.114449 
z"/>
<path fill="#6BACB1" opacity="1.000000" stroke="none" 
	d="
M144.755219,127.495850 
	C145.496902,127.075523 146.329376,127.036591 147.577652,127.002098 
	C147.297958,128.328445 146.602478,129.650360 145.537659,130.982559 
	C145.060898,129.954315 144.953461,128.915787 144.755219,127.495850 
z"/>
<path fill="#85B9BB" opacity="1.000000" stroke="none" 
	d="
M138.252686,132.268951 
	C139.415192,131.745255 140.974045,127.557426 142.022888,132.499435 
	C140.839661,132.760559 139.619751,132.687302 138.252686,132.268951 
z"/>
<path fill="#59A2A8" opacity="1.000000" stroke="none" 
	d="
M141.949890,126.607635 
	C141.159744,126.831680 140.269135,126.702782 139.192871,126.289780 
	C139.954636,126.088684 140.902039,126.171700 141.949890,126.607635 
z"/>
<path fill="#65A7AC" opacity="1.000000" stroke="none" 
	d="
M56.255951,130.958038 
	C56.029682,130.542480 56.055923,130.083313 56.082161,129.624130 
	C56.376717,129.864746 56.671272,130.105377 56.988758,130.581741 
	C56.843945,130.849792 56.676197,130.882111 56.255951,130.958038 
z"/>
<path fill="#F3F1E8" opacity="1.000000" stroke="none" 
	d="
M66.074402,90.987335 
	C66.072205,94.464539 66.314667,97.479050 65.956940,100.420578 
	C65.798111,101.726707 64.427460,102.885460 63.606873,104.111115 
	C62.556591,103.084770 60.645382,102.098877 60.594952,101.025551 
	C60.252930,93.746223 60.170387,86.444740 60.371532,79.160576 
	C60.401649,78.070099 62.356880,77.032776 63.421547,75.970863 
	C64.295677,77.164146 65.801041,78.296089 65.924088,79.562355 
	C66.275352,83.177299 66.064529,86.846870 66.074402,90.987335 
z"/>
</svg>