<svg version="1.1" id="Layer_1" xmlns="http://www.w3.org/2000/svg" xmlns:xlink="http://www.w3.org/1999/xlink" x="0px" y="0px"
	 width="100%" viewBox="0 0 123 68" enable-background="new 0 0 123 68" xml:space="preserve">
<path fill="#F9F7EE" opacity="1.000000" stroke="none" 
	d="
M88.000000,69.000000 
	C58.666668,69.000000 29.833334,69.000000 1.000000,69.000000 
	C1.000000,46.333332 1.000000,23.666666 1.000000,1.000000 
	C42.000000,1.000000 83.000000,1.000000 124.000000,1.000000 
	C124.000000,23.666666 124.000000,46.333332 124.000000,69.000000 
	C112.166664,69.000000 100.333336,69.000000 88.000000,69.000000 
M23.867048,14.980597 
	C23.867048,16.086090 23.867048,17.191586 23.867048,18.423750 
	C11.132038,13.895563 6.976356,16.950172 6.927165,30.448248 
	C6.902944,37.094555 6.872160,43.741127 6.785225,50.386810 
	C6.729733,54.628742 6.658560,59.035389 10.990384,61.343460 
	C15.503890,63.748337 19.894457,62.741352 23.351681,59.665497 
	C27.274071,63.626610 31.626450,61.367348 35.601433,61.877552 
	C35.601433,42.969112 35.601433,24.754284 35.601433,6.338383 
	C31.595795,6.338383 27.891356,6.338383 23.873507,6.338383 
	C23.873507,9.160551 23.873507,11.635546 23.867048,14.980597 
M64.796875,49.199173 
	C64.796875,38.600868 64.796875,28.002565 64.796875,17.140015 
	C60.765106,17.140015 57.186264,17.140015 52.995384,17.140015 
	C52.995384,28.991446 52.995377,40.605049 52.995396,52.218655 
	C52.995399,55.974571 53.156406,59.831329 57.108665,61.673069 
	C61.289795,63.621456 65.217346,62.731773 68.465477,59.365742 
	C71.908806,64.054962 76.420441,61.215054 80.456696,61.768150 
	C80.456696,46.615978 80.456696,31.913155 80.456696,17.218227 
	C76.587799,17.218227 73.166718,17.218227 69.300591,17.218227 
	C69.300591,19.488079 69.301910,21.458263 69.300362,23.428444 
	C69.293533,32.087727 69.362549,40.748528 69.190613,49.404541 
	C69.166580,50.614513 67.957642,51.800953 67.297203,52.998287 
	C66.467522,52.041744 65.637833,51.085201 64.796875,49.199173 
M83.574387,23.553154 
	C81.604744,32.725906 83.090454,36.618500 90.654243,41.830666 
	C92.569611,43.150536 94.856682,44.046310 96.478111,45.640316 
	C97.737244,46.878159 98.641869,48.841717 98.884285,50.596001 
	C99.007133,51.485031 97.317070,52.624580 96.446632,53.650864 
	C95.562309,52.683582 94.362175,51.850636 93.878273,50.713032 
	C93.343727,49.456367 93.465576,47.920490 93.319191,46.658466 
	C89.553612,46.658466 86.318054,46.658466 82.373985,46.658466 
	C83.021210,50.024475 83.167824,53.066154 84.216560,55.756130 
	C86.260818,60.999641 90.863815,62.253300 96.015617,62.342564 
	C101.294540,62.434032 106.069717,61.552425 108.575005,56.162197 
	C112.349731,48.040745 110.015854,40.746052 102.314720,36.069908 
	C99.763069,34.520538 96.956566,33.144058 94.956215,31.034578 
	C93.908867,29.930092 94.218750,27.406612 94.248886,25.529325 
	C94.254570,25.175295 96.459473,24.401386 96.584717,24.577694 
	C97.453384,25.800495 98.092880,27.200710 98.693192,28.592607 
	C98.945290,29.177113 98.923355,29.879808 99.032692,30.571098 
	C102.535896,30.571098 105.936821,30.571098 109.310898,30.571098 
	C109.793694,21.876104 107.912193,18.690771 101.427780,16.833002 
	C93.617981,14.595515 87.027397,16.831125 83.574387,23.553154 
M38.708813,35.426308 
	C38.708813,44.171799 38.708813,52.917290 38.708813,61.714561 
	C42.683018,61.714561 46.304295,61.714561 50.212719,61.714561 
	C50.212719,43.142246 50.212719,24.782280 50.212719,6.305915 
	C46.266178,6.305915 42.676014,6.305915 38.713356,6.305915 
	C38.713356,15.873660 38.713356,25.159042 38.708813,35.426308 
M76.858711,9.174870 
	C76.858711,6.907625 76.858711,4.640380 76.858711,2.288157 
	C63.634705,6.351533 60.315067,9.136229 61.999592,14.804701 
	C65.384552,14.124416 68.837219,13.621778 72.166061,12.681018 
	C73.836273,12.209002 75.281075,10.939421 76.858711,9.174870 
M110.665039,55.642548 
	C110.648956,59.305099 112.156349,62.228882 116.038437,61.810402 
	C117.904816,61.609207 120.788803,59.211658 120.933319,57.603901 
	C121.116127,55.570301 119.500938,52.351250 117.721054,51.396801 
	C114.801292,49.831123 111.893974,51.160336 110.665039,55.642548 
z"/>
<path fill="#4F4F4F" opacity="1.000000" stroke="none" 
	d="
M23.870277,14.545568 
	C23.873507,11.635546 23.873507,9.160551 23.873507,6.338383 
	C27.891356,6.338383 31.595795,6.338383 35.601433,6.338383 
	C35.601433,24.754284 35.601433,42.969112 35.601433,61.877552 
	C31.626450,61.367348 27.274071,63.626610 23.351681,59.665497 
	C19.894457,62.741352 15.503890,63.748337 10.990384,61.343460 
	C6.658560,59.035389 6.729733,54.628742 6.785225,50.386810 
	C6.872160,43.741127 6.902944,37.094555 6.927165,30.448248 
	C6.976356,16.950172 11.132038,13.895563 23.867048,18.423750 
	C23.867048,17.191586 23.867048,16.086090 23.870277,14.545568 
M18.592207,50.639294 
	C19.803400,51.422405 21.014595,52.205517 22.225786,52.988628 
	C22.840603,51.756809 23.953234,50.538357 23.986740,49.290924 
	C24.160603,42.818172 24.247486,36.328606 23.924480,29.866901 
	C23.841032,28.197474 22.170134,26.607397 21.228441,24.980871 
	C20.203476,26.604246 18.363331,28.195044 18.296923,29.856730 
	C18.032021,36.485077 18.319212,43.135490 18.592207,50.639294 
z"/>
<path fill="#525251" opacity="1.000000" stroke="none" 
	d="
M64.802513,49.663918 
	C65.637833,51.085201 66.467522,52.041744 67.297203,52.998287 
	C67.957642,51.800953 69.166580,50.614513 69.190613,49.404541 
	C69.362549,40.748528 69.293533,32.087727 69.300362,23.428444 
	C69.301910,21.458263 69.300591,19.488079 69.300591,17.218227 
	C73.166718,17.218227 76.587799,17.218227 80.456696,17.218227 
	C80.456696,31.913155 80.456696,46.615978 80.456696,61.768150 
	C76.420441,61.215054 71.908806,64.054962 68.465477,59.365742 
	C65.217346,62.731773 61.289795,63.621456 57.108665,61.673069 
	C53.156406,59.831329 52.995399,55.974571 52.995396,52.218655 
	C52.995377,40.605049 52.995384,28.991446 52.995384,17.140015 
	C57.186264,17.140015 60.765106,17.140015 64.796875,17.140015 
	C64.796875,28.002565 64.796875,38.600868 64.802513,49.663918 
z"/>
<path fill="#50504F" opacity="1.000000" stroke="none" 
	d="
M83.717621,23.172539 
	C87.027397,16.831125 93.617981,14.595515 101.427780,16.833002 
	C107.912193,18.690771 109.793694,21.876104 109.310898,30.571098 
	C105.936821,30.571098 102.535896,30.571098 99.032692,30.571098 
	C98.923355,29.879808 98.945290,29.177113 98.693192,28.592607 
	C98.092880,27.200710 97.453384,25.800495 96.584717,24.577694 
	C96.459473,24.401386 94.254570,25.175295 94.248886,25.529325 
	C94.218750,27.406612 93.908867,29.930092 94.956215,31.034578 
	C96.956566,33.144058 99.763069,34.520538 102.314720,36.069908 
	C110.015854,40.746052 112.349731,48.040745 108.575005,56.162197 
	C106.069717,61.552425 101.294540,62.434032 96.015617,62.342564 
	C90.863815,62.253300 86.260818,60.999641 84.216560,55.756130 
	C83.167824,53.066154 83.021210,50.024475 82.373985,46.658466 
	C86.318054,46.658466 89.553612,46.658466 93.319191,46.658466 
	C93.465576,47.920490 93.343727,49.456367 93.878273,50.713032 
	C94.362175,51.850636 95.562309,52.683582 96.446640,53.650867 
	C97.317070,52.624580 99.007133,51.485031 98.884285,50.596001 
	C98.641869,48.841717 97.737244,46.878159 96.478111,45.640316 
	C94.856682,44.046310 92.569611,43.150536 90.654243,41.830666 
	C83.090454,36.618500 81.604744,32.725906 83.717621,23.172539 
z"/>
<path fill="#515151" opacity="1.000000" stroke="none" 
	d="
M38.711082,34.935364 
	C38.713356,25.159042 38.713356,15.873660 38.713356,6.305915 
	C42.676014,6.305915 46.266178,6.305915 50.212719,6.305915 
	C50.212719,24.782280 50.212719,43.142246 50.212719,61.714561 
	C46.304295,61.714561 42.683018,61.714561 38.708813,61.714561 
	C38.708813,52.917290 38.708813,44.171799 38.711082,34.935364 
z"/>
<path fill="#575755" opacity="1.000000" stroke="none" 
	d="
M76.843262,9.602703 
	C75.281075,10.939421 73.836273,12.209002 72.166061,12.681018 
	C68.837219,13.621778 65.384552,14.124416 61.999592,14.804701 
	C60.315067,9.136229 63.634705,6.351533 76.858711,2.288157 
	C76.858711,4.640380 76.858711,6.907625 76.843262,9.602703 
z"/>
<path fill="#515050" opacity="1.000000" stroke="none" 
	d="
M110.743927,55.229820 
	C111.893974,51.160336 114.801292,49.831123 117.721054,51.396801 
	C119.500938,52.351250 121.116127,55.570301 120.933319,57.603901 
	C120.788803,59.211658 117.904816,61.609207 116.038437,61.810402 
	C112.156349,62.228882 110.648956,59.305099 110.743927,55.229820 
z"/>
<path fill="#F3F1E8" opacity="1.000000" stroke="none" 
	d="
M18.497126,50.208511 
	C18.319212,43.135490 18.032021,36.485077 18.296923,29.856730 
	C18.363331,28.195044 20.203476,26.604246 21.228441,24.980871 
	C22.170134,26.607397 23.841032,28.197474 23.924480,29.866901 
	C24.247486,36.328606 24.160603,42.818172 23.986740,49.290924 
	C23.953234,50.538357 22.840603,51.756809 22.225788,52.988625 
	C21.014595,52.205517 19.803400,51.422405 18.497126,50.208511 
z"/>
</svg>